<svg xmlns="http://www.w3.org/2000/svg" xmlns:xlink="http://www.w3.org/1999/xlink" width="200" zoomAndPan="magnify" viewBox="0 0 150 149.999998" height="200" preserveAspectRatio="xMidYMid meet" version="1.0"><defs><g/><clipPath id="0519b91f88"><path d="M 0.960938 109 L 112.800781 109 L 112.800781 128.238281 L 0.960938 128.238281 Z M 0.960938 109 " clip-rule="nonzero"/></clipPath><clipPath id="826723ed68"><rect x="0" width="113" y="0" height="20"/></clipPath><clipPath id="0a7fe5e4a8"><path d="M 7.875 17 L 65 17 L 65 104 L 7.875 104 Z M 7.875 17 " clip-rule="nonzero"/></clipPath><clipPath id="d6213ae56e"><path d="M 27 0.28125 L 103 0.28125 L 103 37 L 27 37 Z M 27 0.28125 " clip-rule="nonzero"/></clipPath><clipPath id="63611610b1"><path d="M 35 68 L 102 68 L 102 108.972656 L 35 108.972656 Z M 35 68 " clip-rule="nonzero"/></clipPath><clipPath id="dd9b21645b"><rect x="0" width="113" y="0" height="129"/></clipPath></defs><g transform="matrix(1, 0, 0, 1, 18, 10)"><g clip-path="url(#dd9b21645b)"><g clip-path="url(#0519b91f88)"><g transform="matrix(1, 0, 0, 1, 0, 109)"><g clip-path="url(#826723ed68)"><g fill="#4f65d6" fill-opacity="1"><g transform="translate(1.661259, 15.908127)"><g><path d="M 9.03125 -13.625 L 14.15625 0 L 10.390625 0 L 9.5 -2.359375 L 4.625 -2.359375 L 3.6875 0 L -0.078125 0 L 5.171875 -13.625 Z M 5.59375 -5.078125 L 8.546875 -5.078125 L 7.09375 -9.40625 L 7.0625 -9.40625 Z M 5.59375 -5.078125 "/></g></g></g><g fill="#4f65d6" fill-opacity="1"><g transform="translate(15.76022, 15.908127)"><g><path d="M 6.375 -13.625 L 3.046875 -7.640625 L 0.953125 -7.640625 L 3.3125 -13.625 Z M 6.375 -13.625 "/></g></g></g><g fill="#4f65d6" fill-opacity="1"><g transform="translate(22.475732, 15.908127)"><g><path d="M 5.765625 -13.984375 C 7.234375 -13.984375 8.660156 -13.609375 10.046875 -12.859375 L 8.640625 -10.109375 C 7.898438 -10.710938 7.113281 -11.015625 6.28125 -11.015625 C 5.882812 -11.015625 5.53125 -10.910156 5.21875 -10.703125 C 4.914062 -10.492188 4.765625 -10.21875 4.765625 -9.875 C 4.765625 -9.5625 4.910156 -9.300781 5.203125 -9.09375 C 5.492188 -8.882812 5.96875 -8.679688 6.625 -8.484375 C 7.75 -8.203125 8.570312 -7.875 9.09375 -7.5 C 9.613281 -7.132812 9.992188 -6.722656 10.234375 -6.265625 C 10.484375 -5.804688 10.609375 -5.25 10.609375 -4.59375 C 10.609375 -2.84375 10.085938 -1.578125 9.046875 -0.796875 C 8.003906 -0.0234375 6.757812 0.359375 5.3125 0.359375 C 3.601562 0.359375 2.015625 -0.15625 0.546875 -1.1875 L 2.0625 -4.046875 C 3.132812 -3.109375 4.175781 -2.640625 5.1875 -2.640625 C 5.6875 -2.640625 6.097656 -2.757812 6.421875 -3 C 6.753906 -3.25 6.921875 -3.585938 6.921875 -4.015625 C 6.921875 -4.628906 6.425781 -5.078125 5.4375 -5.359375 C 3.84375 -5.804688 2.832031 -6.175781 2.40625 -6.46875 C 1.988281 -6.757812 1.660156 -7.132812 1.421875 -7.59375 C 1.191406 -8.0625 1.078125 -8.664062 1.078125 -9.40625 C 1.078125 -10.769531 1.515625 -11.875 2.390625 -12.71875 C 3.265625 -13.5625 4.390625 -13.984375 5.765625 -13.984375 Z M 5.765625 -13.984375 "/></g></g></g><g fill="#4f65d6" fill-opacity="1"><g transform="translate(33.596038, 15.908127)"><g/></g></g><g fill="#4f65d6" fill-opacity="1"><g transform="translate(39.788029, 15.908127)"><g><path d="M 15.53125 -7.0625 C 15.53125 -5.613281 15.203125 -4.3125 14.546875 -3.15625 C 13.898438 -2.007812 13 -1.117188 11.84375 -0.484375 C 10.6875 0.140625 9.441406 0.453125 8.109375 0.453125 C 6.628906 0.453125 5.304688 0.128906 4.140625 -0.515625 C 2.972656 -1.160156 2.066406 -2.046875 1.421875 -3.171875 C 0.785156 -4.304688 0.46875 -5.550781 0.46875 -6.90625 C 0.46875 -8.144531 0.757812 -9.296875 1.34375 -10.359375 C 1.925781 -11.429688 2.816406 -12.316406 4.015625 -13.015625 C 5.222656 -13.722656 6.550781 -14.078125 8 -14.078125 C 9.320312 -14.078125 10.5625 -13.769531 11.71875 -13.15625 C 12.882812 -12.550781 13.8125 -11.707031 14.5 -10.625 C 15.1875 -9.550781 15.53125 -8.363281 15.53125 -7.0625 Z M 8 -2.984375 C 9.09375 -2.984375 10.003906 -3.378906 10.734375 -4.171875 C 11.472656 -4.960938 11.84375 -5.921875 11.84375 -7.046875 C 11.84375 -7.984375 11.460938 -8.816406 10.703125 -9.546875 C 9.953125 -10.273438 9.046875 -10.640625 7.984375 -10.640625 C 6.984375 -10.640625 6.097656 -10.285156 5.328125 -9.578125 C 4.566406 -8.878906 4.175781 -8.035156 4.15625 -7.046875 C 4.15625 -5.878906 4.523438 -4.910156 5.265625 -4.140625 C 6.015625 -3.367188 6.925781 -2.984375 8 -2.984375 Z M 8 -2.984375 "/></g></g></g><g fill="#4f65d6" fill-opacity="1"><g transform="translate(55.800548, 15.908127)"><g><path d="M 4.703125 -13.625 L 11.1875 -5.296875 L 11.21875 -5.296875 L 11.21875 -13.625 L 14.75 -13.625 L 14.75 0 L 11.21875 0 L 4.734375 -8.34375 L 4.703125 -8.34375 L 4.703125 0 L 1.15625 0 L 1.15625 -13.625 Z M 4.703125 -13.625 "/></g></g></g><g fill="#4f65d6" fill-opacity="1"><g transform="translate(71.704754, 15.908127)"><g><path d="M 4.703125 -13.625 L 4.703125 -3 L 8.9375 -3 L 8.9375 0 L 1.15625 0 L 1.15625 -13.625 Z M 4.703125 -13.625 "/></g></g></g><g fill="#4f65d6" fill-opacity="1"><g transform="translate(80.640713, 15.908127)"><g><path d="M 4.703125 -13.625 L 4.703125 0 L 1.15625 0 L 1.15625 -13.625 Z M 4.703125 -13.625 "/></g></g></g><g fill="#4f65d6" fill-opacity="1"><g transform="translate(86.489703, 15.908127)"><g><path d="M 4.703125 -13.625 L 11.1875 -5.296875 L 11.21875 -5.296875 L 11.21875 -13.625 L 14.75 -13.625 L 14.75 0 L 11.21875 0 L 4.734375 -8.34375 L 4.703125 -8.34375 L 4.703125 0 L 1.15625 0 L 1.15625 -13.625 Z M 4.703125 -13.625 "/></g></g></g><g fill="#4f65d6" fill-opacity="1"><g transform="translate(102.393909, 15.908127)"><g><path d="M 8.90625 -13.625 L 8.90625 -10.625 L 4.703125 -10.625 L 4.703125 -8.34375 L 8.6875 -8.34375 L 8.6875 -5.34375 L 4.703125 -5.34375 L 4.703125 -3 L 8.90625 -3 L 8.90625 0 L 1.15625 0 L 1.15625 -13.625 Z M 8.90625 -13.625 "/></g></g></g></g></g></g><g clip-path="url(#0a7fe5e4a8)"><path fill="#6593e5" d="M 51.839844 19.355469 C 38.144531 15.921875 24.578125 18.765625 15.414062 26.941406 C 10.660156 35.054688 7.921875 44.519531 7.921875 54.625 C 7.921875 76.410156 20.621094 95.230469 38.898438 103.890625 C 36.34375 102.140625 34.023438 100.039062 31.863281 97.789062 C 29.695312 95.535156 27.742188 93.066406 25.984375 90.445312 C 22.492188 85.203125 19.832031 79.28125 18.425781 72.996094 C 17.71875 69.863281 17.222656 66.652344 17.105469 63.417969 L 17.039062 62.207031 L 17.039062 60.992188 C 17.042969 60.183594 17.023438 59.371094 17.054688 58.5625 C 17.164062 56.949219 17.195312 55.320312 17.425781 53.71875 C 17.957031 48.992188 18.992188 44.335938 20.414062 39.808594 C 19.628906 38.808594 19.160156 37.542969 19.160156 36.167969 C 19.160156 32.933594 21.742188 30.308594 24.929688 30.308594 C 28.117188 30.308594 30.699219 32.933594 30.699219 36.167969 C 30.699219 39.117188 28.546875 41.550781 25.75 41.957031 C 24.121094 45.992188 22.832031 50.160156 21.988281 54.429688 C 21.648438 55.898438 21.503906 57.390625 21.273438 58.878906 C 21.183594 59.625 21.144531 60.375 21.074219 61.125 L 20.980469 62.253906 L 20.949219 63.378906 C 20.8125 66.390625 21.027344 69.414062 21.445312 72.40625 C 22.277344 78.410156 24.328125 84.257812 27.292969 89.625 C 28.785156 92.300781 30.492188 94.878906 32.4375 97.269531 C 34.378906 99.660156 36.496094 101.933594 38.894531 103.890625 C 36.207031 100.722656 33.96875 97.042969 32.246094 92.867188 C 25.042969 75.433594 28.246094 53.636719 35.199219 40.597656 C 35.34375 40.324219 35.492188 40.050781 35.644531 39.777344 C 35.660156 39.75 35.671875 39.722656 35.6875 39.695312 L 35.6875 39.699219 C 40.8125 30.621094 50.441406 24.492188 61.464844 24.492188 C 62.570312 24.492188 63.664062 24.566406 64.75 24.691406 C 60.828125 22.34375 56.480469 20.515625 51.839844 19.355469 Z M 51.839844 19.355469 " fill-opacity="1" fill-rule="nonzero"/></g><g clip-path="url(#d6213ae56e)"><path fill="#5da4e0" d="M 99.792969 16.675781 C 89.882812 6.382812 76.140625 0.28125 61.464844 0.28125 C 48.582031 0.28125 36.746094 4.925781 27.496094 12.648438 C 32.398438 10.15625 37.613281 8.242188 43.011719 6.980469 C 48.410156 5.722656 54 5.113281 59.625 5.332031 C 65.242188 5.550781 70.910156 6.601562 76.289062 8.738281 C 80.5625 10.429688 84.632812 12.851562 88.207031 15.953125 C 88.679688 15.824219 89.175781 15.75 89.6875 15.75 C 92.875 15.75 95.457031 18.371094 95.457031 21.605469 C 95.457031 24.839844 92.875 27.464844 89.6875 27.464844 C 86.5 27.464844 83.917969 24.839844 83.917969 21.605469 C 83.917969 21.105469 83.984375 20.621094 84.101562 20.15625 C 81.335938 17.285156 78.042969 14.875 74.410156 13.019531 C 69.78125 10.648438 64.644531 9.15625 59.367188 8.445312 C 54.082031 7.734375 48.65625 7.792969 43.289062 8.515625 C 37.917969 9.242188 32.605469 10.632812 27.496094 12.648438 C 35.5625 10.390625 44.53125 10.28125 53.5 12.53125 C 65.660156 15.578125 75.917969 22.332031 82.648438 31.386719 C 85.835938 35.679688 91.460938 37.265625 96.300781 35.078125 C 103.453125 31.851562 105.265625 22.359375 99.792969 16.675781 Z M 99.792969 16.675781 " fill-opacity="1" fill-rule="nonzero"/></g><g clip-path="url(#63611610b1)"><path fill="#4f64d6" d="M 94.667969 75.132812 C 90.304688 72.949219 85.042969 73.632812 81.449219 76.957031 C 76.089844 81.914062 69.039062 84.761719 61.464844 84.761719 C 49.996094 84.761719 40.035156 78.125 35.089844 68.441406 C 36.546875 73.863281 38.988281 79.003906 42.28125 83.382812 C 45.566406 87.75 49.957031 91.214844 54.953125 92.695312 C 57.4375 93.449219 60.023438 93.765625 62.613281 93.691406 C 63.257812 93.664062 63.90625 93.585938 64.550781 93.535156 C 64.875 93.503906 65.195312 93.496094 65.519531 93.441406 L 66.480469 93.269531 C 67.121094 93.144531 67.765625 93.066406 68.402344 92.910156 L 70.300781 92.402344 C 73.800781 91.421875 77.171875 89.929688 80.429688 88.164062 C 80.558594 85.046875 83.082031 82.558594 86.1875 82.558594 C 89.375 82.558594 91.957031 85.179688 91.957031 88.414062 C 91.957031 91.648438 89.375 94.273438 86.1875 94.273438 C 85.019531 94.273438 83.929688 93.917969 83.023438 93.308594 C 79.28125 94.914062 75.394531 96.230469 71.328125 96.96875 L 69.160156 97.332031 C 68.4375 97.4375 67.695312 97.46875 66.964844 97.535156 L 65.867188 97.625 C 65.5 97.648438 65.125 97.628906 64.757812 97.632812 C 64.019531 97.621094 63.28125 97.636719 62.542969 97.59375 C 59.589844 97.40625 56.652344 96.757812 53.917969 95.636719 C 51.179688 94.515625 48.667969 92.894531 46.511719 90.9375 C 44.351562 88.980469 42.535156 86.703125 41.019531 84.277344 C 38.011719 79.402344 36.050781 73.984375 35.089844 68.441406 C 34.808594 75.765625 35.820312 83.335938 38.632812 90.152344 C 42.640625 99.851562 49.601562 106.15625 59.316406 108.917969 C 60.03125 108.945312 60.746094 108.972656 61.464844 108.972656 C 75.109375 108.972656 87.8125 103.847656 97.46875 94.921875 C 103.671875 89.191406 102.191406 78.898438 94.667969 75.132812 Z M 94.667969 75.132812 " fill-opacity="1" fill-rule="nonzero"/></g></g></g></svg>